<?xml version="1.0" encoding="utf-8" standalone="no"?>
<!DOCTYPE svg PUBLIC "-//W3C//DTD SVG 1.1//EN"
  "http://www.w3.org/Graphics/SVG/1.1/DTD/svg11.dtd">
<!-- Created with matplotlib (http://matplotlib.org/) -->
<svg height="216pt" version="1.1" viewBox="0 0 720 216" width="720pt" xmlns="http://www.w3.org/2000/svg" xmlns:xlink="http://www.w3.org/1999/xlink">
 <defs>
  <style type="text/css">
*{stroke-linecap:butt;stroke-linejoin:round;}
  </style>
 </defs>
 <g id="figure_1">
  <g id="patch_1">
   <path d="M 0 216 
L 720 216 
L 720 0 
L 0 0 
z
" style="fill:#ffffff;"/>
  </g>
  <g id="axes_1">
   <g id="patch_2">
    <path d="M 90 192.24 
L 343.636364 192.24 
L 343.636364 25.92 
L 90 25.92 
z
" style="fill:#ffffff;"/>
   </g>
   <g id="matplotlib.axis_1">
    <g id="xtick_1">
     <g id="line2d_1">
      <defs>
       <path d="M 0 0 
L 0 3.5 
" id="m1aa567ce41" style="stroke:#000000;stroke-width:0.8;"/>
      </defs>
      <g>
       <use style="stroke:#000000;stroke-width:0.8;" x="101.528926" xlink:href="#m1aa567ce41" y="192.24"/>
      </g>
     </g>
     <g id="text_1">
      <!-- −80 -->
      <defs>
       <path d="M 62.09375 22 
L 6.40625 22 
L 6.40625 28.59375 
L 62.09375 28.59375 
z
" id="STIXGeneral-Regular-2212"/>
       <path d="M 44.5 15.5 
Q 44.5 7.796875 39.140625 3.1875 
Q 33.796875 -1.40625 24.796875 -1.40625 
Q 16.40625 -1.40625 11 3.1875 
Q 5.59375 7.796875 5.59375 14.90625 
Q 5.59375 20.203125 8.1875 23.953125 
Q 10.796875 27.703125 18.59375 33.203125 
Q 11.09375 39.40625 8.640625 43.203125 
Q 6.203125 47 6.203125 52 
Q 6.203125 59.09375 11.640625 63.34375 
Q 17.09375 67.59375 25.59375 67.59375 
Q 32.90625 67.59375 37.65625 63.4375 
Q 42.40625 59.296875 42.40625 53.296875 
Q 42.40625 47.796875 39.546875 44.5 
Q 36.703125 41.203125 29 37.09375 
Q 38 31.09375 41.25 26.390625 
Q 44.5 21.703125 44.5 15.5 
M 35.5 53.296875 
Q 35.5 58.5 32.59375 61.640625 
Q 29.703125 64.796875 24.59375 64.796875 
Q 19.5 64.796875 16.546875 62.140625 
Q 13.59375 59.5 13.59375 54.890625 
Q 13.59375 50.296875 16.546875 46.546875 
Q 19.5 42.796875 26.09375 38.90625 
Q 31.203125 41.90625 33.34375 45.25 
Q 35.5 48.59375 35.5 53.296875 
M 27.09375 27.203125 
L 21.203125 31.203125 
Q 16.796875 27.59375 15 24.140625 
Q 13.203125 20.703125 13.203125 15.796875 
Q 13.203125 9 16.640625 5.203125 
Q 20.09375 1.40625 25.90625 1.40625 
Q 30.796875 1.40625 33.84375 4.453125 
Q 36.90625 7.5 36.90625 12.40625 
Q 36.90625 16.90625 34.59375 20.296875 
Q 32.296875 23.703125 27.09375 27.203125 
" id="STIXGeneral-Regular-38"/>
       <path d="M 47.59375 33 
Q 47.59375 26.296875 46.296875 20.34375 
Q 45 14.40625 42.453125 9.40625 
Q 39.90625 4.40625 35.40625 1.5 
Q 30.90625 -1.40625 25 -1.40625 
Q 18.90625 -1.40625 14.296875 1.6875 
Q 9.703125 4.796875 7.203125 10 
Q 4.703125 15.203125 3.546875 21.09375 
Q 2.40625 27 2.40625 33.59375 
Q 2.40625 42.90625 4.703125 50.34375 
Q 7 57.796875 12.34375 62.6875 
Q 17.703125 67.59375 25.40625 67.59375 
Q 35.203125 67.59375 41.390625 58 
Q 47.59375 48.40625 47.59375 33 
M 38 32.5 
Q 38 48.296875 34.640625 56.640625 
Q 31.296875 65 24.796875 65 
Q 18.59375 65 15.296875 56.59375 
Q 12 48.203125 12 32.90625 
Q 12 17.5 15.296875 9.34375 
Q 18.59375 1.203125 25 1.203125 
Q 31.296875 1.203125 34.640625 9.34375 
Q 38 17.5 38 32.5 
" id="STIXGeneral-Regular-30"/>
      </defs>
      <g transform="translate(88.891426 209.484531)scale(0.15 -0.15)">
       <use xlink:href="#STIXGeneral-Regular-2212"/>
       <use x="68.499985" xlink:href="#STIXGeneral-Regular-38"/>
       <use x="118.499969" xlink:href="#STIXGeneral-Regular-30"/>
      </g>
     </g>
    </g>
    <g id="xtick_2">
     <g id="line2d_2">
      <g>
       <use style="stroke:#000000;stroke-width:0.8;" x="130.35124" xlink:href="#m1aa567ce41" y="192.24"/>
      </g>
     </g>
     <g id="text_2">
      <!-- −60 -->
      <defs>
       <path d="M 44.59375 68.40625 
L 44.796875 66.796875 
Q 33 64.90625 25.09375 57.25 
Q 17.203125 49.59375 15.203125 38.296875 
Q 21 42.796875 27.90625 42.796875 
Q 36.703125 42.796875 41.75 37.1875 
Q 46.796875 31.59375 46.796875 21.90625 
Q 46.796875 12.09375 41.703125 5.90625 
Q 35.796875 -1.40625 25.796875 -1.40625 
Q 13.59375 -1.40625 8.09375 8.703125 
Q 3.40625 17.296875 3.40625 27.90625 
Q 3.40625 44.296875 14.296875 55.5 
Q 20.5 61.90625 27.046875 64.546875 
Q 33.59375 67.203125 44.59375 68.40625 
M 37.796875 18.796875 
Q 37.796875 38.203125 24.296875 38.203125 
Q 19.296875 38.203125 16 35.546875 
Q 12.703125 32.90625 12.703125 26.59375 
Q 12.703125 14.90625 16.34375 8.15625 
Q 20 1.40625 26.90625 1.40625 
Q 32.203125 1.40625 35 6.15625 
Q 37.796875 10.90625 37.796875 18.796875 
" id="STIXGeneral-Regular-36"/>
      </defs>
      <g transform="translate(117.71374 209.484531)scale(0.15 -0.15)">
       <use xlink:href="#STIXGeneral-Regular-2212"/>
       <use x="68.499985" xlink:href="#STIXGeneral-Regular-36"/>
       <use x="118.499969" xlink:href="#STIXGeneral-Regular-30"/>
      </g>
     </g>
    </g>
    <g id="xtick_3">
     <g id="line2d_3">
      <g>
       <use style="stroke:#000000;stroke-width:0.8;" x="159.173554" xlink:href="#m1aa567ce41" y="192.24"/>
      </g>
     </g>
     <g id="text_3">
      <!-- −40 -->
      <defs>
       <path d="M 47.296875 16.703125 
L 37 16.703125 
L 37 0 
L 29.203125 0 
L 29.203125 16.703125 
L 1.203125 16.703125 
L 1.203125 23.09375 
L 32.59375 67.59375 
L 37 67.59375 
L 37 23.09375 
L 47.296875 23.09375 
z
M 29.203125 23.09375 
L 29.203125 57.40625 
L 5.203125 23.09375 
z
" id="STIXGeneral-Regular-34"/>
      </defs>
      <g transform="translate(146.536054 209.484531)scale(0.15 -0.15)">
       <use xlink:href="#STIXGeneral-Regular-2212"/>
       <use x="68.499985" xlink:href="#STIXGeneral-Regular-34"/>
       <use x="118.499969" xlink:href="#STIXGeneral-Regular-30"/>
      </g>
     </g>
    </g>
    <g id="xtick_4">
     <g id="line2d_4">
      <g>
       <use style="stroke:#000000;stroke-width:0.8;" x="187.995868" xlink:href="#m1aa567ce41" y="192.24"/>
      </g>
     </g>
     <g id="text_4">
      <!-- −20 -->
      <defs>
       <path d="M 47.40625 13.703125 
L 42 0 
L 2.90625 0 
L 2.90625 1.203125 
L 20.703125 20.09375 
Q 27.703125 27.40625 30.703125 33.5 
Q 33.703125 39.59375 33.703125 46.09375 
Q 33.703125 52.796875 30 56.5 
Q 26.296875 60.203125 19.796875 60.203125 
Q 14.40625 60.203125 11.25 57.390625 
Q 8.09375 54.59375 5.09375 47.203125 
L 3 47.703125 
Q 4.703125 57 9.84375 62.296875 
Q 15 67.59375 23.796875 67.59375 
Q 32.09375 67.59375 37.1875 62.59375 
Q 42.296875 57.59375 42.296875 50 
Q 42.296875 38.703125 29.5 25.203125 
L 13 7.59375 
L 36.40625 7.59375 
Q 39.703125 7.59375 41.640625 8.890625 
Q 43.59375 10.203125 46 14.296875 
z
" id="STIXGeneral-Regular-32"/>
      </defs>
      <g transform="translate(175.358368 209.484531)scale(0.15 -0.15)">
       <use xlink:href="#STIXGeneral-Regular-2212"/>
       <use x="68.499985" xlink:href="#STIXGeneral-Regular-32"/>
       <use x="118.499969" xlink:href="#STIXGeneral-Regular-30"/>
      </g>
     </g>
    </g>
    <g id="xtick_5">
     <g id="line2d_5">
      <g>
       <use style="stroke:#000000;stroke-width:0.8;" x="216.818182" xlink:href="#m1aa567ce41" y="192.24"/>
      </g>
     </g>
     <g id="text_5">
      <!-- 0 -->
      <g transform="translate(213.068182 209.484531)scale(0.15 -0.15)">
       <use xlink:href="#STIXGeneral-Regular-30"/>
      </g>
     </g>
    </g>
    <g id="xtick_6">
     <g id="line2d_6">
      <g>
       <use style="stroke:#000000;stroke-width:0.8;" x="245.640496" xlink:href="#m1aa567ce41" y="192.24"/>
      </g>
     </g>
     <g id="text_6">
      <!-- 20 -->
      <g transform="translate(238.140496 209.484531)scale(0.15 -0.15)">
       <use xlink:href="#STIXGeneral-Regular-32"/>
       <use x="49.999985" xlink:href="#STIXGeneral-Regular-30"/>
      </g>
     </g>
    </g>
    <g id="xtick_7">
     <g id="line2d_7">
      <g>
       <use style="stroke:#000000;stroke-width:0.8;" x="274.46281" xlink:href="#m1aa567ce41" y="192.24"/>
      </g>
     </g>
     <g id="text_7">
      <!-- 40 -->
      <g transform="translate(266.96281 209.484531)scale(0.15 -0.15)">
       <use xlink:href="#STIXGeneral-Regular-34"/>
       <use x="49.999985" xlink:href="#STIXGeneral-Regular-30"/>
      </g>
     </g>
    </g>
    <g id="xtick_8">
     <g id="line2d_8">
      <g>
       <use style="stroke:#000000;stroke-width:0.8;" x="303.285124" xlink:href="#m1aa567ce41" y="192.24"/>
      </g>
     </g>
     <g id="text_8">
      <!-- 60 -->
      <g transform="translate(295.785124 209.484531)scale(0.15 -0.15)">
       <use xlink:href="#STIXGeneral-Regular-36"/>
       <use x="49.999985" xlink:href="#STIXGeneral-Regular-30"/>
      </g>
     </g>
    </g>
    <g id="xtick_9">
     <g id="line2d_9">
      <g>
       <use style="stroke:#000000;stroke-width:0.8;" x="332.107438" xlink:href="#m1aa567ce41" y="192.24"/>
      </g>
     </g>
     <g id="text_9">
      <!-- 80 -->
      <g transform="translate(324.607438 209.484531)scale(0.15 -0.15)">
       <use xlink:href="#STIXGeneral-Regular-38"/>
       <use x="49.999985" xlink:href="#STIXGeneral-Regular-30"/>
      </g>
     </g>
    </g>
    <g id="text_10">
     <!-- $x$ $(\mu m)$ -->
     <defs>
      <path d="M 24.296875 35.5 
L 25.5 29.796875 
Q 30.796875 37.90625 34.046875 41 
Q 37.296875 44.09375 40.59375 44.09375 
Q 42.40625 44.09375 43.546875 43.046875 
Q 44.703125 42 44.703125 40.390625 
Q 44.703125 38.796875 43.75 37.796875 
Q 42.796875 36.796875 41.296875 36.796875 
Q 40.40625 36.796875 38.90625 37.640625 
Q 37.40625 38.5 36.09375 38.5 
Q 33.203125 38.5 26.296875 26.40625 
Q 26.296875 25.09375 27.09375 21.90625 
L 30.296875 8.5 
Q 31.296875 4.40625 33.296875 4.40625 
Q 34.90625 4.40625 38 8.40625 
Q 38.296875 8.796875 38.6875 9.34375 
Q 39.09375 9.90625 39.390625 10.34375 
Q 39.703125 10.796875 40.09375 11.203125 
L 41.59375 10.296875 
Q 37.296875 3.59375 34.796875 1.25 
Q 32.296875 -1.09375 29.40625 -1.09375 
Q 27 -1.09375 25.703125 0.40625 
Q 24.40625 1.90625 23.5 5.703125 
L 20.59375 17.59375 
L 11.796875 5.703125 
Q 8.703125 1.5 6.75 0.203125 
Q 4.796875 -1.09375 2.296875 -1.09375 
Q 0 -1.09375 -1.34375 0 
Q -2.703125 1.09375 -2.703125 3.09375 
Q -2.703125 4.59375 -1.75 5.640625 
Q -0.796875 6.703125 0.703125 6.703125 
Q 1.90625 6.703125 3.90625 5.59375 
Q 5.40625 4.703125 6.5 4.703125 
Q 8.203125 4.703125 11.59375 9.59375 
L 19.796875 21.203125 
L 17 33.59375 
Q 16 38 15.140625 39.203125 
Q 14.296875 40.40625 12.40625 40.40625 
Q 11.203125 40.40625 8.5 39.703125 
L 6.703125 39.203125 
L 6.40625 40.796875 
L 7.5 41.203125 
Q 15.5 44.09375 19.203125 44.09375 
Q 21.09375 44.09375 22.1875 42.296875 
Q 23.296875 40.5 24.296875 35.5 
" id="STIXGeneral-Italic-78"/>
      <path id="STIXGeneral-Regular-20"/>
      <path d="M 30.40625 -16.09375 
L 29.203125 -17.703125 
Q 17.59375 -11.09375 11.1875 0.5 
Q 4.796875 12.09375 4.796875 25.203125 
Q 4.796875 52.90625 29.5 67.59375 
L 30.40625 66 
Q 20.203125 57.296875 16.796875 48.84375 
Q 13.40625 40.40625 13.40625 25.5 
Q 13.40625 10.703125 16.90625 1.5 
Q 20.40625 -7.703125 30.40625 -16.09375 
" id="STIXGeneral-Regular-28"/>
      <path d="M 46.90625 11.703125 
L 48.296875 10.796875 
Q 43.703125 3.703125 40.84375 1.296875 
Q 38 -1.09375 34.59375 -1.09375 
Q 32.5 -1.09375 31.09375 0.09375 
Q 29.703125 1.296875 29.703125 3.40625 
Q 29.703125 6.5 31.203125 11 
L 34.5 21.40625 
L 34.40625 21.40625 
Q 27.59375 9.296875 23.046875 4.1875 
Q 18.5 -0.90625 14.09375 -0.90625 
Q 11.296875 -0.90625 10.5 1.90625 
Q 9.59375 -1.703125 8.546875 -5.84375 
Q 7.5 -10 7.046875 -11.84375 
Q 6.59375 -13.703125 6 -15.703125 
Q 5.40625 -17.703125 4.90625 -18.703125 
Q 4.40625 -19.703125 3.796875 -20.5 
L -3.296875 -20.5 
Q -0.90625 -17 1.09375 -9.296875 
L 14.203125 42.796875 
L 21.703125 42.796875 
L 14.203125 13 
Q 13.796875 11.203125 13.796875 10.296875 
Q 13.796875 5.5 17.796875 5.5 
Q 21.796875 5.5 28.296875 15.140625 
Q 34.796875 24.796875 36.296875 30.59375 
L 39.59375 42.796875 
L 47.296875 42.796875 
L 39.40625 12.796875 
Q 37.5 5.203125 37.5 5.09375 
Q 37.5 3.59375 38.59375 3.59375 
Q 39.796875 3.59375 41.4375 5.140625 
Q 43.09375 6.703125 46.90625 11.703125 
" id="STIXGeneral-Italic-3bc"/>
      <path d="M 70.40625 10.5 
L 69.90625 9.796875 
Q 62.203125 -0.90625 55.5 -0.90625 
Q 51.5 -0.90625 51.5 3.703125 
Q 51.5 5.203125 52.796875 10.296875 
L 58.59375 33 
Q 59.296875 35.796875 59.296875 36.796875 
Q 59.296875 37.703125 58.6875 38.296875 
Q 58.09375 38.90625 57.296875 38.90625 
Q 52.59375 38.90625 44.203125 27.203125 
Q 40.5 22 38.390625 16.75 
Q 36.296875 11.5 33.40625 0 
L 25.90625 0 
L 28.59375 9.296875 
Q 35.40625 32.796875 35.40625 36.40625 
Q 35.40625 38.90625 33.203125 38.90625 
Q 30.703125 38.90625 26.59375 34.953125 
Q 22.5 31 18.296875 24.59375 
Q 15.796875 20.703125 14.046875 16.296875 
Q 12.296875 11.90625 8.703125 0 
L 1.203125 0 
L 5.5 14.40625 
Q 11 32.703125 11 37.203125 
Q 11 39.40625 6.90625 39.40625 
L 4.40625 39.40625 
L 4.40625 41 
L 20.59375 44.09375 
L 20.90625 43.90625 
L 15.09375 23 
Q 28.09375 44.09375 37.09375 44.09375 
Q 40 44.09375 41.546875 42.5 
Q 43.09375 40.90625 43.09375 38.09375 
Q 43.09375 34.296875 39.09375 22.90625 
Q 44.40625 31.296875 47.953125 35.546875 
Q 51.5 39.796875 55.09375 42.09375 
Q 58.296875 44.09375 61.40625 44.09375 
Q 64.09375 44.09375 65.640625 42.34375 
Q 67.203125 40.59375 67.203125 37.796875 
Q 67.203125 36.5 66.90625 35 
L 60.09375 9.90625 
Q 59.09375 6.09375 59.09375 5.40625 
Q 59.09375 3.796875 60.296875 3.796875 
Q 62.5 3.796875 66.796875 9.09375 
L 68.90625 11.703125 
z
" id="STIXGeneral-Italic-6d"/>
      <path d="M 2.90625 66 
L 4.09375 67.59375 
Q 15.5 60.796875 22 49.1875 
Q 28.5 37.59375 28.5 24.703125 
Q 28.5 -2.59375 3.796875 -17.703125 
L 2.90625 -16.09375 
Q 13.203125 -7.59375 16.546875 0.84375 
Q 19.90625 9.296875 19.90625 24.40625 
Q 19.90625 39.59375 16.546875 48.75 
Q 13.203125 57.90625 2.90625 66 
" id="STIXGeneral-Regular-29"/>
     </defs>
     <g transform="translate(190.718182 230.399375)scale(0.2 -0.2)">
      <use transform="translate(0 0.40625)" xlink:href="#STIXGeneral-Italic-78"/>
      <use transform="translate(44.399994 0.40625)" xlink:href="#STIXGeneral-Regular-20"/>
      <use transform="translate(69.399979 0.40625)" xlink:href="#STIXGeneral-Regular-28"/>
      <use transform="translate(102.699966 0.40625)" xlink:href="#STIXGeneral-Italic-3bc"/>
      <use transform="translate(155.299957 0.40625)" xlink:href="#STIXGeneral-Italic-6d"/>
      <use transform="translate(227.499939 0.40625)" xlink:href="#STIXGeneral-Regular-29"/>
     </g>
    </g>
   </g>
   <g id="matplotlib.axis_2">
    <g id="ytick_1">
     <g id="line2d_10">
      <defs>
       <path d="M 0 0 
L -3.5 0 
" id="m5a79238f3a" style="stroke:#000000;stroke-width:0.8;"/>
      </defs>
      <g>
       <use style="stroke:#000000;stroke-width:0.8;" x="90" xlink:href="#m5a79238f3a" y="185.05973"/>
      </g>
     </g>
     <g id="text_11">
      <!-- 0.00 -->
      <defs>
       <path d="M 18.09375 4.296875 
Q 18.09375 2.09375 16.4375 0.5 
Q 14.796875 -1.09375 12.5 -1.09375 
Q 10.203125 -1.09375 8.59375 0.5 
Q 7 2.09375 7 4.390625 
Q 7 6.703125 8.640625 8.34375 
Q 10.296875 10 12.59375 10 
Q 14.796875 10 16.4375 8.296875 
Q 18.09375 6.59375 18.09375 4.296875 
" id="STIXGeneral-Regular-2e"/>
      </defs>
      <g transform="translate(56.75 190.181996)scale(0.15 -0.15)">
       <use xlink:href="#STIXGeneral-Regular-30"/>
       <use x="49.999985" xlink:href="#STIXGeneral-Regular-2e"/>
       <use x="74.999969" xlink:href="#STIXGeneral-Regular-30"/>
       <use x="124.999954" xlink:href="#STIXGeneral-Regular-30"/>
      </g>
     </g>
    </g>
    <g id="ytick_2">
     <g id="line2d_11">
      <g>
       <use style="stroke:#000000;stroke-width:0.8;" x="90" xlink:href="#m5a79238f3a" y="147.164798"/>
      </g>
     </g>
     <g id="text_12">
      <!-- 0.25 -->
      <defs>
       <path d="M 43.796875 68.09375 
L 40.203125 59.59375 
Q 39.59375 58.296875 37.5 58.296875 
L 18.09375 58.296875 
L 14.09375 49.796875 
Q 25.09375 47.703125 30 45.25 
Q 34.90625 42.796875 39.09375 37 
Q 42.59375 32.203125 42.59375 24.296875 
Q 42.59375 17.09375 40.25 12.1875 
Q 37.90625 7.296875 32.796875 3.5 
Q 26 -1.40625 15.796875 -1.40625 
Q 10.09375 -1.40625 6.59375 0.296875 
Q 3.09375 2 3.09375 4.796875 
Q 3.09375 8.59375 7.59375 8.59375 
Q 11.203125 8.59375 15 5.5 
Q 18.90625 2.296875 22.09375 2.296875 
Q 27.296875 2.296875 31.4375 7.5 
Q 35.59375 12.703125 35.59375 19.203125 
Q 35.59375 28.796875 28.90625 34.203125 
Q 20.203125 41.203125 7.59375 41.203125 
Q 6.40625 41.203125 6.40625 42 
L 6.5 42.5 
L 17.40625 66.203125 
L 38.09375 66.203125 
Q 39.796875 66.203125 40.75 66.703125 
Q 41.703125 67.203125 42.90625 68.796875 
z
" id="STIXGeneral-Regular-35"/>
      </defs>
      <g transform="translate(56.75 152.287063)scale(0.15 -0.15)">
       <use xlink:href="#STIXGeneral-Regular-30"/>
       <use x="49.999985" xlink:href="#STIXGeneral-Regular-2e"/>
       <use x="74.999969" xlink:href="#STIXGeneral-Regular-32"/>
       <use x="124.999954" xlink:href="#STIXGeneral-Regular-35"/>
      </g>
     </g>
    </g>
    <g id="ytick_3">
     <g id="line2d_12">
      <g>
       <use style="stroke:#000000;stroke-width:0.8;" x="90" xlink:href="#m5a79238f3a" y="109.269865"/>
      </g>
     </g>
     <g id="text_13">
      <!-- 0.50 -->
      <g transform="translate(56.75 114.392131)scale(0.15 -0.15)">
       <use xlink:href="#STIXGeneral-Regular-30"/>
       <use x="49.999985" xlink:href="#STIXGeneral-Regular-2e"/>
       <use x="74.999969" xlink:href="#STIXGeneral-Regular-35"/>
       <use x="124.999954" xlink:href="#STIXGeneral-Regular-30"/>
      </g>
     </g>
    </g>
    <g id="ytick_4">
     <g id="line2d_13">
      <g>
       <use style="stroke:#000000;stroke-width:0.8;" x="90" xlink:href="#m5a79238f3a" y="71.374933"/>
      </g>
     </g>
     <g id="text_14">
      <!-- 0.75 -->
      <defs>
       <path d="M 44.90625 64.59375 
L 23.703125 -0.796875 
L 17.203125 -0.796875 
L 37 58.796875 
L 15.5 58.796875 
Q 11.203125 58.796875 9.09375 57.296875 
Q 7 55.796875 3.796875 50.59375 
L 2 51.5 
L 8 66.203125 
L 44.90625 66.203125 
z
" id="STIXGeneral-Regular-37"/>
      </defs>
      <g transform="translate(56.75 76.497198)scale(0.15 -0.15)">
       <use xlink:href="#STIXGeneral-Regular-30"/>
       <use x="49.999985" xlink:href="#STIXGeneral-Regular-2e"/>
       <use x="74.999969" xlink:href="#STIXGeneral-Regular-37"/>
       <use x="124.999954" xlink:href="#STIXGeneral-Regular-35"/>
      </g>
     </g>
    </g>
    <g id="ytick_5">
     <g id="line2d_14">
      <g>
       <use style="stroke:#000000;stroke-width:0.8;" x="90" xlink:href="#m5a79238f3a" y="33.48"/>
      </g>
     </g>
     <g id="text_15">
      <!-- 1.00 -->
      <defs>
       <path d="M 39.40625 0 
L 11.796875 0 
L 11.796875 1.5 
Q 17.296875 1.796875 19.296875 3.546875 
Q 21.296875 5.296875 21.296875 9.5 
L 21.296875 54.40625 
Q 21.296875 59.296875 18.296875 59.296875 
Q 16.90625 59.296875 13.796875 58.09375 
L 11.09375 57.09375 
L 11.09375 58.5 
L 29 67.59375 
L 29.90625 67.296875 
L 29.90625 7.59375 
Q 29.90625 4.296875 31.90625 2.890625 
Q 33.90625 1.5 39.40625 1.5 
z
" id="STIXGeneral-Regular-31"/>
      </defs>
      <g transform="translate(56.75 38.602266)scale(0.15 -0.15)">
       <use xlink:href="#STIXGeneral-Regular-31"/>
       <use x="49.999985" xlink:href="#STIXGeneral-Regular-2e"/>
       <use x="74.999969" xlink:href="#STIXGeneral-Regular-30"/>
       <use x="124.999954" xlink:href="#STIXGeneral-Regular-30"/>
      </g>
     </g>
    </g>
    <g id="text_16">
     <!-- Normalised $E_x$ field -->
     <defs>
      <path d="M 70.703125 66.203125 
L 70.703125 64.296875 
Q 65.59375 63.796875 64.09375 62.5 
Q 62.5 61.09375 61.84375 58.6875 
Q 61.203125 56.296875 61.203125 50.703125 
L 61.203125 -1.09375 
L 59.40625 -1.09375 
L 15.296875 53.796875 
L 15.296875 15 
Q 15.296875 7.40625 17 5.046875 
Q 18.703125 2.703125 24.59375 1.90625 
L 24.59375 0 
L 1.203125 0 
L 1.203125 1.90625 
Q 7.40625 2.59375 9.15625 4.84375 
Q 10.90625 7.09375 10.90625 15 
L 10.90625 59 
Q 8.296875 62.203125 6.5 63.25 
Q 4.703125 64.296875 1.203125 64.296875 
L 1.203125 66.203125 
L 18.203125 66.203125 
L 56.796875 17.90625 
L 56.796875 51.90625 
Q 56.796875 59.5 54.90625 61.703125 
Q 53.703125 63 52.25 63.453125 
Q 50.796875 63.90625 47 64.296875 
L 47 66.203125 
z
" id="STIXGeneral-Regular-4e"/>
      <path d="M 47 23.09375 
Q 47 12.59375 40.75 5.796875 
Q 34.5 -1 24.5 -1 
Q 15.296875 -1 9.09375 5.75 
Q 2.90625 12.5 2.90625 22.796875 
Q 2.90625 33.203125 9.09375 39.59375 
Q 15.296875 46 25.40625 46 
Q 34.703125 46 40.84375 39.640625 
Q 47 33.296875 47 23.09375 
M 38 20.40625 
Q 38 31.796875 33 38.203125 
Q 29 43.203125 23.5 43.203125 
Q 18.296875 43.203125 15.09375 38.953125 
Q 11.90625 34.703125 11.90625 27.296875 
Q 11.90625 14.5 17.203125 6.796875 
Q 20.59375 1.796875 26.203125 1.796875 
Q 31.703125 1.796875 34.84375 6.75 
Q 38 11.703125 38 20.40625 
" id="STIXGeneral-Regular-6f"/>
      <path d="M 16 45.796875 
L 16 36.59375 
Q 19.796875 42 22.34375 44 
Q 24.90625 46 28 46 
Q 30.59375 46 32.046875 44.59375 
Q 33.5 43.203125 33.5 40.703125 
Q 33.5 38.59375 32.453125 37.390625 
Q 31.40625 36.203125 29.59375 36.203125 
Q 27.703125 36.203125 25.59375 38.203125 
Q 24 39.703125 23 39.703125 
Q 20.90625 39.703125 18.453125 36.796875 
Q 16 33.90625 16 31.5 
L 16 9 
Q 16 4.703125 17.703125 3.203125 
Q 19.40625 1.703125 24.5 1.5 
L 24.5 0 
L 0.5 0 
L 0.5 1.5 
Q 5.296875 2.40625 6.4375 3.5 
Q 7.59375 4.59375 7.59375 8.40625 
L 7.59375 33.40625 
Q 7.59375 36.703125 6.84375 38.046875 
Q 6.09375 39.40625 4.203125 39.40625 
Q 2.59375 39.40625 0.703125 39 
L 0.703125 40.59375 
Q 7 42.59375 15.5 46 
z
" id="STIXGeneral-Regular-72"/>
      <path d="M 77.5 0 
L 55.703125 0 
L 55.703125 1.5 
Q 59.90625 1.90625 61.046875 3.25 
Q 62.203125 4.59375 62.203125 9 
L 62.203125 29.59375 
Q 62.203125 35.59375 60.453125 38.1875 
Q 58.703125 40.796875 54.5 40.796875 
Q 51 40.796875 48.546875 39.390625 
Q 46.09375 38 43.796875 34.703125 
L 43.796875 9.5 
Q 43.796875 4.703125 45.25 3.140625 
Q 46.703125 1.59375 51 1.5 
L 51 0 
L 28.59375 0 
L 28.59375 1.5 
Q 33 1.796875 34.203125 2.9375 
Q 35.40625 4.09375 35.40625 8.59375 
L 35.40625 29.703125 
Q 35.40625 40.796875 28.90625 40.796875 
Q 26.09375 40.796875 22.9375 39.546875 
Q 19.796875 38.296875 18.296875 36.5 
Q 17 35 17 34.796875 
L 17 7 
Q 17 3.796875 18.390625 2.75 
Q 19.796875 1.703125 23.796875 1.5 
L 23.796875 0 
L 1.59375 0 
L 1.59375 1.5 
Q 5.796875 1.59375 7.1875 3.046875 
Q 8.59375 4.5 8.59375 8.796875 
L 8.59375 33.59375 
Q 8.59375 37.296875 7.796875 38.75 
Q 7 40.203125 5.09375 40.203125 
Q 3.59375 40.203125 1.90625 39.796875 
L 1.90625 41.5 
Q 8.703125 43.40625 15.796875 46 
L 16.59375 45.703125 
L 16.59375 38.296875 
L 16.796875 38.296875 
Q 21.296875 43 24.75 44.5 
Q 28.203125 46 32.09375 46 
Q 40 46 42.703125 37.59375 
Q 50.5 46 59 46 
Q 70.59375 46 70.59375 28 
L 70.59375 7.703125 
Q 70.59375 4.40625 71.59375 3.15625 
Q 72.59375 1.90625 74.90625 1.703125 
L 77.5 1.5 
z
" id="STIXGeneral-Regular-6d"/>
      <path d="M 44.203125 6.59375 
L 44.203125 3.796875 
Q 40.40625 -1 35.203125 -1 
Q 29.5 -1 28.796875 6.296875 
L 28.703125 6.296875 
Q 22.296875 -1 14.203125 -1 
Q 9.5 -1 6.59375 1.75 
Q 3.703125 4.5 3.703125 9.40625 
Q 3.703125 16.40625 10.703125 21.09375 
Q 15.5 24.296875 28.703125 29.203125 
L 28.703125 34.59375 
Q 28.703125 39.09375 26.546875 41.34375 
Q 24.40625 43.59375 20.90625 43.59375 
Q 17.90625 43.59375 15.90625 42.140625 
Q 13.90625 40.703125 13.90625 38.703125 
Q 13.90625 37.796875 14.203125 36.6875 
Q 14.5 35.59375 14.5 34.5 
Q 14.5 33 13.140625 31.703125 
Q 11.796875 30.40625 9.90625 30.40625 
Q 8.203125 30.40625 6.890625 31.703125 
Q 5.59375 33 5.59375 35 
Q 5.59375 39.796875 10.703125 43 
Q 15.40625 46 22.203125 46 
Q 30.296875 46 34 41.5 
Q 35.796875 39.40625 36.296875 37.25 
Q 36.796875 35.09375 36.796875 30.40625 
L 36.796875 11.296875 
Q 36.796875 4.703125 39.90625 4.703125 
Q 41.90625 4.703125 44.203125 6.59375 
M 28.703125 12.703125 
L 28.703125 26.796875 
Q 19.5 23.59375 15.90625 20.203125 
Q 12.5 17.09375 12.5 12.5 
Q 12.5 8.703125 14.390625 6.75 
Q 16.296875 4.796875 19.40625 4.796875 
Q 22.703125 4.796875 25.203125 6.40625 
Q 27.296875 7.90625 28 9.203125 
Q 28.703125 10.5 28.703125 12.703125 
" id="STIXGeneral-Regular-61"/>
      <path d="M 25.703125 0 
L 2.09375 0 
L 2.09375 1.5 
Q 6.796875 1.90625 8.296875 3.453125 
Q 9.796875 5 9.796875 9.203125 
L 9.796875 56.09375 
Q 9.796875 59.703125 8.890625 61.09375 
Q 8 62.5 5.59375 62.5 
Q 3.5 62.5 1.90625 62.296875 
L 1.90625 63.90625 
Q 11.40625 66.203125 17.703125 68.296875 
L 18.203125 67.90625 
L 18.203125 8.703125 
Q 18.203125 4.5 19.59375 3.140625 
Q 21 1.796875 25.703125 1.5 
z
" id="STIXGeneral-Regular-6c"/>
      <path d="M 18 63.203125 
Q 18 61 16.5 59.546875 
Q 15 58.09375 12.796875 58.09375 
Q 10.703125 58.09375 9.25 59.546875 
Q 7.796875 61 7.796875 63.203125 
Q 7.796875 65.296875 9.296875 66.796875 
Q 10.796875 68.296875 12.90625 68.296875 
Q 15.09375 68.296875 16.546875 66.796875 
Q 18 65.296875 18 63.203125 
M 25.296875 0 
L 1.59375 0 
L 1.59375 1.5 
Q 6.796875 1.796875 8.140625 3.296875 
Q 9.5 4.796875 9.5 10.40625 
L 9.5 33.09375 
Q 9.5 36.59375 8.796875 38 
Q 8.09375 39.40625 6.203125 39.40625 
Q 3.796875 39.40625 2 38.90625 
L 2 40.5 
L 17.5 46 
L 17.90625 45.59375 
L 17.90625 10.5 
Q 17.90625 4.90625 19.15625 3.40625 
Q 20.40625 1.90625 25.296875 1.5 
z
" id="STIXGeneral-Regular-69"/>
      <path d="M 15.59375 30.09375 
L 26 23.796875 
Q 31 20.796875 32.890625 18.1875 
Q 34.796875 15.59375 34.796875 11.5 
Q 34.796875 6.5 30.640625 2.75 
Q 26.5 -1 20.796875 -1 
Q 16.09375 -1 13.5 -0.09375 
Q 10.796875 0.796875 8.90625 0.796875 
Q 7.203125 0.796875 6.5 -0.40625 
L 5.203125 -0.40625 
L 5.203125 15.296875 
L 6.796875 15.296875 
Q 8.40625 8 11.40625 4.59375 
Q 14.40625 1.203125 19.5 1.203125 
Q 23.203125 1.203125 25.5 3.296875 
Q 27.796875 5.40625 27.796875 8.59375 
Q 27.796875 13.203125 22.5 16.09375 
L 17.09375 19.09375 
Q 5.09375 25.796875 5.09375 33.59375 
Q 5.09375 39.40625 8.84375 42.65625 
Q 12.59375 45.90625 18.90625 45.90625 
Q 23.296875 45.90625 25.59375 44.796875 
Q 27.40625 44 28.40625 44 
Q 29.09375 44 30 45 
L 31.09375 45 
L 31.59375 31.40625 
L 30.09375 31.40625 
Q 28.40625 38.203125 25.84375 40.953125 
Q 23.296875 43.703125 18.796875 43.703125 
Q 15.40625 43.703125 13.34375 42 
Q 11.296875 40.296875 11.296875 36.90625 
Q 11.296875 35.203125 12.4375 33.25 
Q 13.59375 31.296875 15.59375 30.09375 
" id="STIXGeneral-Regular-73"/>
      <path d="M 40.796875 16.40625 
L 42.40625 15.703125 
Q 36.40625 -1 21.5 -1 
Q 12.703125 -1 7.59375 5.140625 
Q 2.5 11.296875 2.5 21.703125 
Q 2.5 32.40625 8.203125 39.203125 
Q 13.90625 46 23.203125 46 
Q 32.203125 46 37.09375 39.09375 
Q 40 35.09375 40.5 27.703125 
L 9.703125 27.703125 
Q 10.09375 21.40625 10.9375 18.09375 
Q 11.796875 14.796875 14.296875 11.40625 
Q 18.5 5.90625 25.40625 5.90625 
Q 30.296875 5.90625 33.640625 8.296875 
Q 37 10.703125 40.796875 16.40625 
M 9.90625 30.90625 
L 30.296875 30.90625 
Q 29.40625 37.203125 27.34375 39.796875 
Q 25.296875 42.40625 20.5 42.40625 
Q 16.296875 42.40625 13.5 39.453125 
Q 10.703125 36.5 9.90625 30.90625 
" id="STIXGeneral-Regular-65"/>
      <path d="M 49.09375 4.203125 
L 34.40625 -1 
L 34 -0.703125 
L 34 5.703125 
Q 29.203125 -1 21.203125 -1 
Q 12.90625 -1 7.796875 4.953125 
Q 2.703125 10.90625 2.703125 20.5 
Q 2.703125 31.09375 8.796875 38.546875 
Q 14.90625 46 23.5 46 
Q 28.90625 46 34 41.703125 
L 34 57.296875 
Q 34 60.40625 33.09375 61.40625 
Q 32.203125 62.40625 29.40625 62.40625 
Q 28 62.40625 27.203125 62.296875 
L 27.203125 63.90625 
Q 36.296875 66.296875 41.90625 68.296875 
L 42.40625 68.09375 
L 42.40625 11.40625 
Q 42.40625 7.90625 43.25 6.796875 
Q 44.09375 5.703125 46.796875 5.703125 
Q 47.40625 5.703125 49.09375 5.796875 
z
M 34 10.203125 
L 34 33.203125 
Q 34 37.203125 30.953125 40.203125 
Q 27.90625 43.203125 23.796875 43.203125 
Q 18.09375 43.203125 14.6875 38.09375 
Q 11.296875 33 11.296875 24.5 
Q 11.296875 15.296875 15.046875 9.75 
Q 18.796875 4.203125 25.09375 4.203125 
Q 29.796875 4.203125 32.5 7.40625 
Q 34 9.09375 34 10.203125 
" id="STIXGeneral-Regular-64"/>
      <path d="M 63.40625 65.296875 
L 60.296875 49.90625 
L 58.09375 50.09375 
Q 58.40625 52.59375 58.40625 54.703125 
Q 58.40625 59.203125 54.703125 60.59375 
Q 51 62 39.203125 62 
Q 35 62 33.703125 61.546875 
Q 32.40625 61.09375 31.90625 59.40625 
L 25.296875 36.09375 
L 33.09375 36.09375 
Q 39.703125 36.09375 41.890625 37.6875 
Q 44.09375 39.296875 47 45.796875 
L 48.796875 45.40625 
L 42 22.203125 
L 40 22.703125 
Q 40.703125 25.796875 40.703125 27.90625 
Q 40.703125 30.296875 40 31 
Q 38.296875 32.5 32.203125 32.5 
L 24.40625 32.5 
L 21.203125 21.296875 
Q 17.59375 8.59375 17.59375 6.703125 
Q 17.59375 3.296875 25.5 3.296875 
Q 38.40625 3.296875 45.796875 7.203125 
Q 49.59375 9.203125 55.203125 17 
L 56.796875 16.203125 
L 50.59375 0 
L -0.09375 0 
L -0.09375 1.59375 
Q 4.203125 2.40625 5.5 3.546875 
Q 6.796875 4.703125 8 9 
L 20.296875 53.203125 
Q 21.40625 56.90625 21.40625 59.59375 
Q 21.40625 61.59375 19.84375 62.4375 
Q 18.296875 63.296875 13.703125 63.703125 
L 13.703125 65.296875 
z
" id="STIXGeneral-Italic-45"/>
      <path d="M 2.09375 45 
L 10.296875 45 
Q 10.40625 51 11.09375 54.34375 
Q 11.796875 57.703125 13.796875 61.09375 
Q 18 68.296875 27.90625 68.296875 
Q 32.40625 68.296875 35.34375 66.546875 
Q 38.296875 64.796875 38.296875 62.09375 
Q 38.296875 60.40625 37.09375 59.203125 
Q 35.90625 58 34.09375 58 
Q 31.703125 58 29.59375 61.59375 
Q 27.203125 65.5 24.296875 65.5 
Q 18.703125 65.5 18.703125 56.59375 
L 18.703125 45 
L 30.90625 45 
L 30.90625 41.796875 
L 18.703125 41.796875 
L 18.703125 10.40625 
Q 18.703125 4.796875 20.296875 3.25 
Q 21.90625 1.703125 28 1.5 
L 28 0 
L 2 0 
L 2 1.5 
Q 7.40625 1.796875 8.84375 3.34375 
Q 10.296875 4.90625 10.296875 10.40625 
L 10.296875 41.796875 
L 2.09375 41.796875 
z
" id="STIXGeneral-Regular-66"/>
     </defs>
     <g transform="translate(48.409375 188.78)rotate(-90)scale(0.2 -0.2)">
      <use transform="translate(0 0.703125)" xlink:href="#STIXGeneral-Regular-4e"/>
      <use transform="translate(72.199982 0.703125)" xlink:href="#STIXGeneral-Regular-6f"/>
      <use transform="translate(122.199966 0.703125)" xlink:href="#STIXGeneral-Regular-72"/>
      <use transform="translate(155.499954 0.703125)" xlink:href="#STIXGeneral-Regular-6d"/>
      <use transform="translate(233.299942 0.703125)" xlink:href="#STIXGeneral-Regular-61"/>
      <use transform="translate(277.699936 0.703125)" xlink:href="#STIXGeneral-Regular-6c"/>
      <use transform="translate(305.499924 0.703125)" xlink:href="#STIXGeneral-Regular-69"/>
      <use transform="translate(333.299911 0.703125)" xlink:href="#STIXGeneral-Regular-73"/>
      <use transform="translate(372.199905 0.703125)" xlink:href="#STIXGeneral-Regular-65"/>
      <use transform="translate(416.599899 0.703125)" xlink:href="#STIXGeneral-Regular-64"/>
      <use transform="translate(466.599884 0.703125)" xlink:href="#STIXGeneral-Regular-20"/>
      <use transform="translate(491.599869 0.703125)" xlink:href="#STIXGeneral-Italic-45"/>
      <use transform="translate(552.69986 -12.525)scale(0.7)" xlink:href="#STIXGeneral-Italic-78"/>
      <use transform="translate(588.18923 0.703125)" xlink:href="#STIXGeneral-Regular-20"/>
      <use transform="translate(613.189215 0.703125)" xlink:href="#STIXGeneral-Regular-66"/>
      <use transform="translate(646.489203 0.703125)" xlink:href="#STIXGeneral-Regular-69"/>
      <use transform="translate(674.289191 0.703125)" xlink:href="#STIXGeneral-Regular-65"/>
      <use transform="translate(718.689185 0.703125)" xlink:href="#STIXGeneral-Regular-6c"/>
      <use transform="translate(746.489172 0.703125)" xlink:href="#STIXGeneral-Regular-64"/>
     </g>
    </g>
   </g>
   <g id="line2d_15">
    <path clip-path="url(#p49b7b13be0)" d="M 101.528926 33.48 
L 114.58054 34.143886 
L 121.831436 34.747369 
L 127.632153 35.49705 
L 131.982691 36.308832 
L 134.88305 37.017602 
L 137.783409 37.901681 
L 140.683767 39.006817 
L 143.584126 40.39081 
L 146.484485 42.126832 
L 149.384843 44.307376 
L 150.835023 45.599946 
L 152.285202 47.049846 
L 153.735381 48.676783 
L 155.185561 50.502787 
L 156.63574 52.552633 
L 158.085919 54.854253 
L 159.536099 57.439068 
L 160.986278 60.342307 
L 162.436457 63.603711 
L 163.886637 67.26799 
L 165.336816 71.385483 
L 166.786995 76.012753 
L 168.237174 81.213523 
L 169.687354 87.060531 
L 171.137533 65.537592 
L 175.488071 84.760305 
L 179.838609 102.984564 
L 182.738968 114.435497 
L 185.639326 125.237123 
L 188.539685 135.319262 
L 191.440044 144.615911 
L 194.340402 153.065721 
L 197.240761 160.611057 
L 200.14112 167.201258 
L 201.591299 170.123832 
L 203.041478 172.790774 
L 204.491658 175.197901 
L 205.941837 177.340564 
L 207.392016 179.215046 
L 208.842196 180.818093 
L 210.292375 182.146916 
L 211.742554 183.199192 
L 213.192734 183.97306 
L 214.642913 184.466663 
L 216.093092 184.68 
L 217.543271 184.611676 
L 218.993451 184.262622 
L 220.44363 183.632837 
L 221.893809 182.723716 
L 223.343989 181.537117 
L 224.794168 180.075365 
L 226.244347 178.340319 
L 227.694527 176.335232 
L 229.144706 174.063823 
L 230.594885 171.530274 
L 232.045065 168.73877 
L 234.945423 162.401877 
L 237.845782 155.0973 
L 240.746141 146.874306 
L 243.646499 137.78867 
L 246.546858 127.899418 
L 249.447217 117.270691 
L 252.347575 105.971744 
L 256.698113 87.930145 
L 261.048651 68.828509 
L 262.498831 62.280651 
L 263.94901 87.417021 
L 265.399189 81.530972 
L 266.849368 76.294042 
L 268.299548 71.63419 
L 269.749727 67.487369 
L 271.199906 63.796783 
L 272.650086 60.511954 
L 274.100265 57.588078 
L 275.550444 54.985277 
L 277.000624 52.66804 
L 278.450803 50.604761 
L 279.900982 48.767369 
L 281.351162 47.130811 
L 282.801341 45.672964 
L 285.7017 43.216291 
L 288.602058 41.264282 
L 291.502417 39.711897 
L 294.402776 38.476264 
L 297.303134 37.492186 
L 300.203493 36.708139 
L 304.554031 35.820727 
L 308.904569 35.191356 
L 314.705286 34.632748 
L 320.506003 34.295151 
L 327.7569 34.084868 
L 332.107438 34.045696 
L 332.107438 34.045696 
" style="fill:none;stroke:#000000;stroke-linecap:square;stroke-width:1.5;"/>
   </g>
   <g id="patch_3">
    <path d="M 90 192.24 
L 90 25.92 
" style="fill:none;stroke:#000000;stroke-linecap:square;stroke-linejoin:miter;stroke-width:0.8;"/>
   </g>
   <g id="patch_4">
    <path d="M 343.636364 192.24 
L 343.636364 25.92 
" style="fill:none;stroke:#000000;stroke-linecap:square;stroke-linejoin:miter;stroke-width:0.8;"/>
   </g>
   <g id="patch_5">
    <path d="M 90 192.24 
L 343.636364 192.24 
" style="fill:none;stroke:#000000;stroke-linecap:square;stroke-linejoin:miter;stroke-width:0.8;"/>
   </g>
   <g id="patch_6">
    <path d="M 90 25.92 
L 343.636364 25.92 
" style="fill:none;stroke:#000000;stroke-linecap:square;stroke-linejoin:miter;stroke-width:0.8;"/>
   </g>
   <g id="text_17">
    <!-- $E_x$ field -->
    <g transform="translate(178.693182 19.92)scale(0.25 -0.25)">
     <use transform="translate(0 0.703125)" xlink:href="#STIXGeneral-Italic-45"/>
     <use transform="translate(61.099991 -12.525)scale(0.7)" xlink:href="#STIXGeneral-Italic-78"/>
     <use transform="translate(96.589362 0.703125)" xlink:href="#STIXGeneral-Regular-20"/>
     <use transform="translate(121.589346 0.703125)" xlink:href="#STIXGeneral-Regular-66"/>
     <use transform="translate(154.889334 0.703125)" xlink:href="#STIXGeneral-Regular-69"/>
     <use transform="translate(182.689322 0.703125)" xlink:href="#STIXGeneral-Regular-65"/>
     <use transform="translate(227.089316 0.703125)" xlink:href="#STIXGeneral-Regular-6c"/>
     <use transform="translate(254.889304 0.703125)" xlink:href="#STIXGeneral-Regular-64"/>
    </g>
   </g>
  </g>
  <g id="axes_2">
   <g id="patch_7">
    <path d="M 394.363636 192.24 
L 648 192.24 
L 648 25.92 
L 394.363636 25.92 
z
" style="fill:#ffffff;"/>
   </g>
   <g id="matplotlib.axis_3">
    <g id="xtick_10">
     <g id="line2d_16">
      <g>
       <use style="stroke:#000000;stroke-width:0.8;" x="405.892562" xlink:href="#m1aa567ce41" y="192.24"/>
      </g>
     </g>
     <g id="text_18">
      <!-- −80 -->
      <g transform="translate(393.255062 209.484531)scale(0.15 -0.15)">
       <use xlink:href="#STIXGeneral-Regular-2212"/>
       <use x="68.499985" xlink:href="#STIXGeneral-Regular-38"/>
       <use x="118.499969" xlink:href="#STIXGeneral-Regular-30"/>
      </g>
     </g>
    </g>
    <g id="xtick_11">
     <g id="line2d_17">
      <g>
       <use style="stroke:#000000;stroke-width:0.8;" x="434.714876" xlink:href="#m1aa567ce41" y="192.24"/>
      </g>
     </g>
     <g id="text_19">
      <!-- −60 -->
      <g transform="translate(422.077376 209.484531)scale(0.15 -0.15)">
       <use xlink:href="#STIXGeneral-Regular-2212"/>
       <use x="68.499985" xlink:href="#STIXGeneral-Regular-36"/>
       <use x="118.499969" xlink:href="#STIXGeneral-Regular-30"/>
      </g>
     </g>
    </g>
    <g id="xtick_12">
     <g id="line2d_18">
      <g>
       <use style="stroke:#000000;stroke-width:0.8;" x="463.53719" xlink:href="#m1aa567ce41" y="192.24"/>
      </g>
     </g>
     <g id="text_20">
      <!-- −40 -->
      <g transform="translate(450.89969 209.484531)scale(0.15 -0.15)">
       <use xlink:href="#STIXGeneral-Regular-2212"/>
       <use x="68.499985" xlink:href="#STIXGeneral-Regular-34"/>
       <use x="118.499969" xlink:href="#STIXGeneral-Regular-30"/>
      </g>
     </g>
    </g>
    <g id="xtick_13">
     <g id="line2d_19">
      <g>
       <use style="stroke:#000000;stroke-width:0.8;" x="492.359504" xlink:href="#m1aa567ce41" y="192.24"/>
      </g>
     </g>
     <g id="text_21">
      <!-- −20 -->
      <g transform="translate(479.722004 209.484531)scale(0.15 -0.15)">
       <use xlink:href="#STIXGeneral-Regular-2212"/>
       <use x="68.499985" xlink:href="#STIXGeneral-Regular-32"/>
       <use x="118.499969" xlink:href="#STIXGeneral-Regular-30"/>
      </g>
     </g>
    </g>
    <g id="xtick_14">
     <g id="line2d_20">
      <g>
       <use style="stroke:#000000;stroke-width:0.8;" x="521.181818" xlink:href="#m1aa567ce41" y="192.24"/>
      </g>
     </g>
     <g id="text_22">
      <!-- 0 -->
      <g transform="translate(517.431818 209.484531)scale(0.15 -0.15)">
       <use xlink:href="#STIXGeneral-Regular-30"/>
      </g>
     </g>
    </g>
    <g id="xtick_15">
     <g id="line2d_21">
      <g>
       <use style="stroke:#000000;stroke-width:0.8;" x="550.004132" xlink:href="#m1aa567ce41" y="192.24"/>
      </g>
     </g>
     <g id="text_23">
      <!-- 20 -->
      <g transform="translate(542.504132 209.484531)scale(0.15 -0.15)">
       <use xlink:href="#STIXGeneral-Regular-32"/>
       <use x="49.999985" xlink:href="#STIXGeneral-Regular-30"/>
      </g>
     </g>
    </g>
    <g id="xtick_16">
     <g id="line2d_22">
      <g>
       <use style="stroke:#000000;stroke-width:0.8;" x="578.826446" xlink:href="#m1aa567ce41" y="192.24"/>
      </g>
     </g>
     <g id="text_24">
      <!-- 40 -->
      <g transform="translate(571.326446 209.484531)scale(0.15 -0.15)">
       <use xlink:href="#STIXGeneral-Regular-34"/>
       <use x="49.999985" xlink:href="#STIXGeneral-Regular-30"/>
      </g>
     </g>
    </g>
    <g id="xtick_17">
     <g id="line2d_23">
      <g>
       <use style="stroke:#000000;stroke-width:0.8;" x="607.64876" xlink:href="#m1aa567ce41" y="192.24"/>
      </g>
     </g>
     <g id="text_25">
      <!-- 60 -->
      <g transform="translate(600.14876 209.484531)scale(0.15 -0.15)">
       <use xlink:href="#STIXGeneral-Regular-36"/>
       <use x="49.999985" xlink:href="#STIXGeneral-Regular-30"/>
      </g>
     </g>
    </g>
    <g id="xtick_18">
     <g id="line2d_24">
      <g>
       <use style="stroke:#000000;stroke-width:0.8;" x="636.471074" xlink:href="#m1aa567ce41" y="192.24"/>
      </g>
     </g>
     <g id="text_26">
      <!-- 80 -->
      <g transform="translate(628.971074 209.484531)scale(0.15 -0.15)">
       <use xlink:href="#STIXGeneral-Regular-38"/>
       <use x="49.999985" xlink:href="#STIXGeneral-Regular-30"/>
      </g>
     </g>
    </g>
    <g id="text_27">
     <!-- $x$ $(\mu m)$ -->
     <g transform="translate(495.081818 230.399375)scale(0.2 -0.2)">
      <use transform="translate(0 0.40625)" xlink:href="#STIXGeneral-Italic-78"/>
      <use transform="translate(44.399994 0.40625)" xlink:href="#STIXGeneral-Regular-20"/>
      <use transform="translate(69.399979 0.40625)" xlink:href="#STIXGeneral-Regular-28"/>
      <use transform="translate(102.699966 0.40625)" xlink:href="#STIXGeneral-Italic-3bc"/>
      <use transform="translate(155.299957 0.40625)" xlink:href="#STIXGeneral-Italic-6d"/>
      <use transform="translate(227.499939 0.40625)" xlink:href="#STIXGeneral-Regular-29"/>
     </g>
    </g>
   </g>
   <g id="matplotlib.axis_4">
    <g id="ytick_6">
     <g id="line2d_25">
      <g>
       <use style="stroke:#000000;stroke-width:0.8;" x="394.363636" xlink:href="#m5a79238f3a" y="146.933664"/>
      </g>
     </g>
     <g id="text_28">
      <!-- 0.48 -->
      <g transform="translate(361.113636 152.05593)scale(0.15 -0.15)">
       <use xlink:href="#STIXGeneral-Regular-30"/>
       <use x="49.999985" xlink:href="#STIXGeneral-Regular-2e"/>
       <use x="74.999969" xlink:href="#STIXGeneral-Regular-34"/>
       <use x="124.999954" xlink:href="#STIXGeneral-Regular-38"/>
      </g>
     </g>
    </g>
    <g id="ytick_7">
     <g id="line2d_26">
      <g>
       <use style="stroke:#000000;stroke-width:0.8;" x="394.363636" xlink:href="#m5a79238f3a" y="100.139092"/>
      </g>
     </g>
     <g id="text_29">
      <!-- 0.50 -->
      <g transform="translate(361.113636 105.261357)scale(0.15 -0.15)">
       <use xlink:href="#STIXGeneral-Regular-30"/>
       <use x="49.999985" xlink:href="#STIXGeneral-Regular-2e"/>
       <use x="74.999969" xlink:href="#STIXGeneral-Regular-35"/>
       <use x="124.999954" xlink:href="#STIXGeneral-Regular-30"/>
      </g>
     </g>
    </g>
    <g id="ytick_8">
     <g id="line2d_27">
      <g>
       <use style="stroke:#000000;stroke-width:0.8;" x="394.363636" xlink:href="#m5a79238f3a" y="53.344519"/>
      </g>
     </g>
     <g id="text_30">
      <!-- 0.52 -->
      <g transform="translate(361.113636 58.466785)scale(0.15 -0.15)">
       <use xlink:href="#STIXGeneral-Regular-30"/>
       <use x="49.999985" xlink:href="#STIXGeneral-Regular-2e"/>
       <use x="74.999969" xlink:href="#STIXGeneral-Regular-35"/>
       <use x="124.999954" xlink:href="#STIXGeneral-Regular-32"/>
      </g>
     </g>
    </g>
    <g id="text_31">
     <!-- Normalised $E_y$ field -->
     <defs>
      <path d="M 24.296875 18.59375 
L 26.40625 7.59375 
Q 33.09375 18.59375 35.84375 24.34375 
Q 38.59375 30.09375 38.59375 33.296875 
Q 38.59375 34.90625 36 36.5 
Q 33.40625 38.203125 33.40625 40.40625 
Q 33.40625 42 34.546875 43.046875 
Q 35.703125 44.09375 37.40625 44.09375 
Q 39.59375 44.09375 41.09375 42.5 
Q 42.59375 40.90625 42.59375 38.59375 
Q 42.59375 29.90625 29.5 8.09375 
Q 21.703125 -4.796875 14.34375 -12.6875 
Q 7 -20.59375 2.703125 -20.59375 
Q 0.40625 -20.59375 -1 -19.390625 
Q -2.40625 -18.203125 -2.40625 -16.296875 
Q -2.40625 -14.59375 -1.25 -13.4375 
Q -0.09375 -12.296875 1.5 -12.296875 
Q 3.40625 -12.296875 4.90625 -13.6875 
Q 6.40625 -15.09375 7.59375 -15.09375 
Q 9.40625 -15.09375 12.40625 -11.796875 
Q 13.703125 -10.5 16.25 -7.140625 
Q 18.796875 -3.796875 19.5 -2.703125 
Q 20.5 -0.703125 20.5 0.796875 
Q 20.5 3.796875 17.390625 16.34375 
Q 14.296875 28.90625 12.296875 34 
Q 10.90625 37.703125 9.25 39.046875 
Q 7.59375 40.40625 4.59375 40.40625 
Q 3 40.40625 1.5 40 
L 1.5 41.703125 
Q 3.703125 42.09375 4.703125 42.296875 
Q 8.796875 43.09375 15.40625 44.09375 
L 15.796875 44.09375 
Q 16.90625 44.09375 19.953125 34.796875 
Q 23 25.5 24.296875 18.59375 
" id="STIXGeneral-Italic-79"/>
     </defs>
     <g transform="translate(351.513636 188.78)rotate(-90)scale(0.2 -0.2)">
      <use transform="translate(0 0.703125)" xlink:href="#STIXGeneral-Regular-4e"/>
      <use transform="translate(72.199982 0.703125)" xlink:href="#STIXGeneral-Regular-6f"/>
      <use transform="translate(122.199966 0.703125)" xlink:href="#STIXGeneral-Regular-72"/>
      <use transform="translate(155.499954 0.703125)" xlink:href="#STIXGeneral-Regular-6d"/>
      <use transform="translate(233.299942 0.703125)" xlink:href="#STIXGeneral-Regular-61"/>
      <use transform="translate(277.699936 0.703125)" xlink:href="#STIXGeneral-Regular-6c"/>
      <use transform="translate(305.499924 0.703125)" xlink:href="#STIXGeneral-Regular-69"/>
      <use transform="translate(333.299911 0.703125)" xlink:href="#STIXGeneral-Regular-73"/>
      <use transform="translate(372.199905 0.703125)" xlink:href="#STIXGeneral-Regular-65"/>
      <use transform="translate(416.599899 0.703125)" xlink:href="#STIXGeneral-Regular-64"/>
      <use transform="translate(466.599884 0.703125)" xlink:href="#STIXGeneral-Regular-20"/>
      <use transform="translate(491.599869 0.703125)" xlink:href="#STIXGeneral-Italic-45"/>
      <use transform="translate(552.69986 -12.525)scale(0.7)" xlink:href="#STIXGeneral-Italic-79"/>
      <use transform="translate(588.18923 0.703125)" xlink:href="#STIXGeneral-Regular-20"/>
      <use transform="translate(613.189215 0.703125)" xlink:href="#STIXGeneral-Regular-66"/>
      <use transform="translate(646.489203 0.703125)" xlink:href="#STIXGeneral-Regular-69"/>
      <use transform="translate(674.289191 0.703125)" xlink:href="#STIXGeneral-Regular-65"/>
      <use transform="translate(718.689185 0.703125)" xlink:href="#STIXGeneral-Regular-6c"/>
      <use transform="translate(746.489172 0.703125)" xlink:href="#STIXGeneral-Regular-64"/>
     </g>
    </g>
   </g>
   <g id="line2d_28">
    <path clip-path="url(#pb5d7eab093)" d="M 405.892562 107.39166 
L 407.342741 106.802426 
L 416.043817 106.665342 
L 423.294714 106.323601 
L 429.095431 105.814043 
L 433.445969 105.214767 
L 437.796507 104.334226 
L 440.696866 103.527517 
L 443.597224 102.483148 
L 446.497583 101.129959 
L 449.397942 99.376112 
L 450.848121 98.31351 
L 452.2983 97.104662 
L 453.74848 95.73024 
L 455.198659 94.168848 
L 456.648838 92.396737 
L 458.099018 90.387896 
L 459.549197 88.113833 
L 460.999376 85.543374 
L 462.449556 82.642573 
L 463.899735 79.374125 
L 465.349914 75.696855 
L 466.800094 71.564456 
L 468.250273 66.924102 
L 469.700452 61.714516 
L 471.150632 55.86212 
L 472.600811 49.279466 
L 474.05099 41.861033 
L 475.501169 33.48 
L 484.202245 55.577503 
L 487.102604 62.315696 
L 490.002963 68.443028 
L 492.903321 73.920774 
L 495.80368 78.779721 
L 498.704039 83.091086 
L 501.604397 86.940643 
L 504.504756 90.414809 
L 507.405115 93.592676 
L 511.755653 97.952866 
L 517.55637 103.298372 
L 530.607984 115.062377 
L 534.958522 119.407012 
L 537.85888 122.571875 
L 540.759239 126.032262 
L 543.659598 129.870105 
L 546.559956 134.177017 
L 549.460315 139.048226 
L 552.360674 144.569343 
L 555.261032 150.791869 
L 558.161391 157.701413 
L 561.06175 165.180836 
L 568.312646 184.68 
L 569.762826 176.032099 
L 571.213005 168.363899 
L 572.663184 161.543742 
L 574.113363 155.462556 
L 575.563543 150.0316 
L 577.013722 145.177946 
L 578.463901 140.841571 
L 579.914081 136.971394 
L 581.36426 133.522398 
L 582.814439 130.454602 
L 584.264619 127.73138 
L 585.714798 125.31888 
L 587.164977 123.185673 
L 588.615157 121.302684 
L 590.065336 119.642934 
L 591.515515 118.18174 
L 592.965695 116.896607 
L 595.866053 114.774726 
L 598.766412 113.137502 
L 601.666771 111.873764 
L 604.567129 110.896482 
L 607.467488 110.138255 
L 611.818026 109.301788 
L 616.168564 108.71791 
L 621.969281 108.189717 
L 629.220178 107.76011 
L 636.471074 107.44891 
L 636.471074 107.44891 
" style="fill:none;stroke:#000000;stroke-linecap:square;stroke-width:1.5;"/>
   </g>
   <g id="patch_8">
    <path d="M 394.363636 192.24 
L 394.363636 25.92 
" style="fill:none;stroke:#000000;stroke-linecap:square;stroke-linejoin:miter;stroke-width:0.8;"/>
   </g>
   <g id="patch_9">
    <path d="M 648 192.24 
L 648 25.92 
" style="fill:none;stroke:#000000;stroke-linecap:square;stroke-linejoin:miter;stroke-width:0.8;"/>
   </g>
   <g id="patch_10">
    <path d="M 394.363636 192.24 
L 648 192.24 
" style="fill:none;stroke:#000000;stroke-linecap:square;stroke-linejoin:miter;stroke-width:0.8;"/>
   </g>
   <g id="patch_11">
    <path d="M 394.363636 25.92 
L 648 25.92 
" style="fill:none;stroke:#000000;stroke-linecap:square;stroke-linejoin:miter;stroke-width:0.8;"/>
   </g>
   <g id="text_32">
    <!-- $E_y$ field -->
    <g transform="translate(483.056818 19.92)scale(0.25 -0.25)">
     <use transform="translate(0 0.703125)" xlink:href="#STIXGeneral-Italic-45"/>
     <use transform="translate(61.099991 -12.525)scale(0.7)" xlink:href="#STIXGeneral-Italic-79"/>
     <use transform="translate(96.589362 0.703125)" xlink:href="#STIXGeneral-Regular-20"/>
     <use transform="translate(121.589346 0.703125)" xlink:href="#STIXGeneral-Regular-66"/>
     <use transform="translate(154.889334 0.703125)" xlink:href="#STIXGeneral-Regular-69"/>
     <use transform="translate(182.689322 0.703125)" xlink:href="#STIXGeneral-Regular-65"/>
     <use transform="translate(227.089316 0.703125)" xlink:href="#STIXGeneral-Regular-6c"/>
     <use transform="translate(254.889304 0.703125)" xlink:href="#STIXGeneral-Regular-64"/>
    </g>
   </g>
  </g>
 </g>
 <defs>
  <clipPath id="p49b7b13be0">
   <rect height="166.32" width="253.636364" x="90" y="25.92"/>
  </clipPath>
  <clipPath id="pb5d7eab093">
   <rect height="166.32" width="253.636364" x="394.363636" y="25.92"/>
  </clipPath>
 </defs>
</svg>
